<svg width="30" height="31" viewBox="0 0 30 31" fill="none" xmlns="http://www.w3.org/2000/svg">
<g filter="url(#filter0_d_3_404)">
<ellipse cx="15.0314" cy="14.8" rx="10.9295" ry="10.9959" fill="white"/>
</g>
<path d="M15.0217 24.8012C20.5446 24.8012 25.0217 20.3241 25.0217 14.8012C25.0217 9.27836 20.5446 4.80121 15.0217 4.80121C9.49888 4.80121 5.02173 9.27836 5.02173 14.8012C5.02173 20.3241 9.49888 24.8012 15.0217 24.8012Z" stroke="#BC0F0F" stroke-width="2" stroke-linecap="round" stroke-linejoin="round"/>
<path d="M12.1116 11.8013C12.3467 11.133 12.8107 10.5694 13.4215 10.2104C14.0323 9.85145 14.7505 9.72023 15.4487 9.84C16.147 9.95978 16.7804 10.3228 17.2366 10.8648C17.6929 11.4068 17.9426 12.0928 17.9416 12.8013C17.9416 14.8013 14.9416 15.8013 14.9416 15.8013" stroke="#BC0F0F" stroke-width="2" stroke-linecap="round" stroke-linejoin="round"/>
<path d="M15.0217 19.8012H15.0317" stroke="#BC0F0F" stroke-width="2" stroke-linecap="round" stroke-linejoin="round"/>
<defs>
<filter id="filter0_d_3_404" x="0.101929" y="0.804108" width="29.859" height="29.9918" filterUnits="userSpaceOnUse" color-interpolation-filters="sRGB">
<feFlood flood-opacity="0" result="BackgroundImageFix"/>
<feColorMatrix in="SourceAlpha" type="matrix" values="0 0 0 0 0 0 0 0 0 0 0 0 0 0 0 0 0 0 127 0" result="hardAlpha"/>
<feOffset dy="1"/>
<feGaussianBlur stdDeviation="2"/>
<feComposite in2="hardAlpha" operator="out"/>
<feColorMatrix type="matrix" values="0 0 0 0 0 0 0 0 0 0 0 0 0 0 0 0 0 0 0.25 0"/>
<feBlend mode="normal" in2="BackgroundImageFix" result="effect1_dropShadow_3_404"/>
<feBlend mode="normal" in="SourceGraphic" in2="effect1_dropShadow_3_404" result="shape"/>
</filter>
</defs>
</svg>
