<svg width="31" height="30" viewBox="0 0 31 30" fill="none" xmlns="http://www.w3.org/2000/svg">
<path d="M10.3508 22.8902V24.4127C10.3508 25.0125 10.4869 25.6064 10.7514 26.1606C11.0158 26.7147 11.4034 27.2181 11.8921 27.6423C12.3808 28.0665 12.9608 28.4029 13.5991 28.6324C14.2376 28.862 14.9218 28.9801 15.6129 28.9801C16.304 28.9801 16.9883 28.862 17.6267 28.6324C18.265 28.4029 18.8451 28.0665 19.3338 27.6423C19.8224 27.2181 20.2101 26.7147 20.4744 26.1606C20.7389 25.6064 20.875 25.0125 20.875 24.4127V22.8902" stroke="white" stroke-width="1.7" stroke-linecap="round" stroke-linejoin="round"/>
<path d="M29.6454 22.8899C29.6454 22.8899 26.1373 15.2775 26.1373 10.71C26.1373 5.73451 21.3453 1.57507 15.6131 1.57507C9.88091 1.57507 5.08888 5.73451 5.08888 10.71C5.08888 16.7999 1.58081 22.8899 1.58081 22.8899H29.6454Z" stroke="white" stroke-width="1.7" stroke-linecap="round" stroke-linejoin="round"/>
</svg>
